<svg width="390" height="158" viewBox="0 0 390 158" fill="none" xmlns="http://www.w3.org/2000/svg">
<g clip-path="url(#clip0_775_515)">
<path d="M390 0H0V158H390V0Z" fill="#282828"/>
<path d="M390 0H0V158H390V0Z" fill="#282828"/>
<path d="M76.8444 74.546L114.278 60.3308L99.6689 111.278L48.722 96.6689L76.8444 74.546Z" fill="#FB4934"/>
<path d="M76.8444 74.546L114.278 60.3308L99.6689 111.278L48.722 96.6689L76.8444 74.546Z" fill="#CC241D"/>
<path d="M63.3308 45.722L114.278 60.3308L81.0808 79L48.722 96.6689L63.3308 45.722Z" fill="#FB4934"/>
<path d="M63.3308 45.722L114.278 60.3308L81.0808 79L48.722 96.6689L63.3308 45.722Z" fill="#FB4934"/>
<rect x="65.6021" y="49.8192" width="46.375" height="46.375" transform="rotate(16 65.6021 49.8192)" fill="#282828"/>
<path d="M152.844 74.546L190.277 60.3308L175.669 111.278L124.722 96.6689L152.844 74.546Z" fill="#FABD2F"/>
<path d="M152.844 74.546L190.277 60.3308L175.669 111.278L124.722 96.6689L152.844 74.546Z" fill="#D79921"/>
<path d="M139.331 45.722L190.277 60.3308L157.081 79L124.722 96.6689L139.331 45.722Z" fill="#FABD2F"/>
<path d="M139.331 45.722L190.277 60.3308L157.081 79L124.722 96.6689L139.331 45.722Z" fill="#FABD2F"/>
<rect x="141.602" y="49.8192" width="46.375" height="46.375" transform="rotate(16 141.602 49.8192)" fill="#282828"/>
<path d="M228.845 74.546L266.278 60.3308L251.669 111.278L200.722 96.6689L228.845 74.546Z" fill="#83A598"/>
<path d="M228.845 74.546L266.278 60.3308L251.669 111.278L200.722 96.6689L228.845 74.546Z" fill="#458588"/>
<path d="M215.331 45.722L266.278 60.3308L233.081 79L200.722 96.6689L215.331 45.722Z" fill="#83A598"/>
<path d="M215.331 45.722L266.278 60.3308L233.081 79L200.722 96.6689L215.331 45.722Z" fill="#83A598"/>
<rect x="217.602" y="49.8192" width="46.375" height="46.375" transform="rotate(16 217.602 49.8192)" fill="#282828"/>
<path d="M304.845 74.546L342.278 60.3308L327.669 111.278L276.722 96.6689L304.845 74.546Z" fill="#D3869B"/>
<path d="M304.845 74.546L342.278 60.3308L327.669 111.278L276.722 96.6689L304.845 74.546Z" fill="#B16286"/>
<path d="M291.331 45.722L342.278 60.3308L309.081 79L276.722 96.6689L291.331 45.722Z" fill="#D3869B"/>
<path d="M291.331 45.722L342.278 60.3308L309.081 79L276.722 96.6689L291.331 45.722Z" fill="#D3869B"/>
<rect x="293.602" y="49.8192" width="46.375" height="46.375" transform="rotate(16 293.602 49.8192)" fill="#282828"/>
</g>
<defs>
<clipPath id="clip0_775_515">
<rect width="390" height="158" fill="white"/>
</clipPath>
</defs>
</svg>
