<svg width="544" height="652" viewBox="0 0 544 652" fill="none" xmlns="http://www.w3.org/2000/svg">
<g filter="url(#filter0_d_540_269)">
<rect x="4.75" y="23.75" width="534.5" height="619.5" rx="7.25" stroke="#DC486A" stroke-width="1.5"/>
<rect x="210" width="125" height="46" fill="#15161C"/>
<path d="M227.479 34V5.65H234.129C235.832 5.65 237.162 5.97666 238.119 6.63C239.075 7.26 239.74 8.12333 240.114 9.22C240.51 10.3167 240.709 11.565 240.709 12.965C240.709 14.225 240.51 15.4267 240.114 16.57C239.74 17.7133 239.075 18.6467 238.119 19.37C237.162 20.0933 235.844 20.455 234.164 20.455H229.369V34H227.479ZM229.369 18.985H233.744C234.887 18.985 235.82 18.7867 236.544 18.39C237.29 17.9933 237.839 17.3633 238.189 16.5C238.562 15.6133 238.749 14.435 238.749 12.965C238.749 11.4483 238.585 10.27 238.259 9.43C237.932 8.56667 237.407 7.97167 236.684 7.645C235.96 7.295 234.992 7.12 233.779 7.12H229.369V18.985ZM244.081 34V13.77H245.936V16.5C246.542 15.4967 247.289 14.7617 248.176 14.295C249.086 13.805 249.937 13.56 250.731 13.56C250.777 13.56 250.824 13.56 250.871 13.56C250.941 13.56 251.011 13.5717 251.081 13.595V15.52C250.987 15.4733 250.859 15.45 250.696 15.45C250.556 15.4267 250.427 15.415 250.311 15.415C249.377 15.415 248.537 15.6367 247.791 16.08C247.067 16.5233 246.449 17.165 245.936 18.005V34H244.081ZM258.301 34.315C256.971 34.315 255.933 34.0233 255.186 33.44C254.463 32.8567 253.95 31.9933 253.646 30.85C253.366 29.7067 253.226 28.295 253.226 26.615V21.155C253.226 19.475 253.366 18.0633 253.646 16.92C253.95 15.7767 254.463 14.9133 255.186 14.33C255.933 13.7467 256.971 13.455 258.301 13.455C259.655 13.455 260.693 13.7467 261.416 14.33C262.163 14.9133 262.676 15.7767 262.956 16.92C263.26 18.04 263.411 19.4517 263.411 21.155V26.615C263.411 28.295 263.26 29.7067 262.956 30.85C262.676 31.9933 262.163 32.8567 261.416 33.44C260.693 34.0233 259.655 34.315 258.301 34.315ZM258.301 32.915C259.281 32.915 260.005 32.67 260.471 32.18C260.938 31.6667 261.23 30.9433 261.346 30.01C261.486 29.0767 261.556 27.9683 261.556 26.685V21.085C261.556 19.7783 261.486 18.67 261.346 17.76C261.23 16.8267 260.938 16.115 260.471 15.625C260.005 15.1117 259.281 14.855 258.301 14.855C257.321 14.855 256.598 15.1117 256.131 15.625C255.688 16.115 255.396 16.8267 255.256 17.76C255.14 18.67 255.081 19.7783 255.081 21.085V26.685C255.081 27.9683 255.14 29.0767 255.256 30.01C255.396 30.9433 255.688 31.6667 256.131 32.18C256.598 32.67 257.321 32.915 258.301 32.915ZM265.505 39.425C265.411 39.425 265.236 39.4133 264.98 39.39C264.7 39.39 264.525 39.3783 264.455 39.355V37.85C264.501 37.8733 264.641 37.885 264.875 37.885C265.108 37.885 265.248 37.885 265.295 37.885C266.111 37.885 266.695 37.7333 267.045 37.43C267.418 37.1267 267.64 36.7417 267.71 36.275C267.803 35.8317 267.85 35.365 267.85 34.875V13.77H269.705V34.98C269.705 36.6133 269.331 37.7567 268.585 38.41C267.838 39.0867 266.811 39.425 265.505 39.425ZM267.85 11.11V7.89H269.705V11.11H267.85ZM278.845 34.315C277.772 34.315 276.85 34.105 276.08 33.685C275.31 33.2417 274.715 32.46 274.295 31.34C273.898 30.1967 273.7 28.5867 273.7 26.51V21.12C273.7 18.9967 273.91 17.3867 274.33 16.29C274.75 15.1933 275.345 14.4467 276.115 14.05C276.908 13.6533 277.83 13.455 278.88 13.455C280.14 13.455 281.132 13.7233 281.855 14.26C282.578 14.7967 283.092 15.66 283.395 16.85C283.698 18.0167 283.85 19.5683 283.85 21.505V23.43H275.555V26.65C275.555 28.26 275.66 29.52 275.87 30.43C276.103 31.34 276.465 31.9817 276.955 32.355C277.445 32.7283 278.075 32.915 278.845 32.915C279.335 32.915 279.825 32.8333 280.315 32.67C280.805 32.5067 281.213 32.1217 281.54 31.515C281.867 30.9083 282.03 29.9633 282.03 28.68V27.175H283.85V28.505C283.85 30.2317 283.488 31.6317 282.765 32.705C282.065 33.7783 280.758 34.315 278.845 34.315ZM275.555 22.31H282.03V20.735C282.03 19.5217 281.96 18.4833 281.82 17.62C281.703 16.7333 281.423 16.0567 280.98 15.59C280.537 15.1 279.837 14.855 278.88 14.855C278.133 14.855 277.503 15.0183 276.99 15.345C276.5 15.6483 276.138 16.2317 275.905 17.095C275.672 17.935 275.555 19.16 275.555 20.77V22.31ZM292.072 34.315C290.555 34.315 289.435 33.965 288.712 33.265C287.988 32.5417 287.51 31.585 287.277 30.395C287.067 29.205 286.962 27.875 286.962 26.405V21.645C286.962 19.6617 287.113 18.075 287.417 16.885C287.72 15.6717 288.245 14.7967 288.992 14.26C289.738 13.7233 290.765 13.455 292.072 13.455C293.472 13.455 294.522 13.7467 295.222 14.33C295.945 14.89 296.423 15.6717 296.657 16.675C296.89 17.655 297.007 18.7633 297.007 20V20.805H295.257V20C295.257 18.6233 295.14 17.5733 294.907 16.85C294.697 16.1033 294.358 15.59 293.892 15.31C293.425 15.0067 292.818 14.855 292.072 14.855C291.162 14.855 290.473 15.0767 290.007 15.52C289.54 15.94 289.225 16.6283 289.062 17.585C288.898 18.5417 288.817 19.825 288.817 21.435V26.685C288.817 28.8783 289.027 30.465 289.447 31.445C289.89 32.425 290.777 32.915 292.107 32.915C293.017 32.915 293.693 32.7167 294.137 32.32C294.603 31.9233 294.907 31.305 295.047 30.465C295.187 29.625 295.257 28.54 295.257 27.21V26.44H297.007V27.175C297.007 28.5283 296.902 29.7417 296.692 30.815C296.482 31.8883 296.027 32.74 295.327 33.37C294.627 34 293.542 34.315 292.072 34.315ZM304.917 34.21C303.983 34.21 303.283 34.0233 302.817 33.65C302.35 33.2767 302.047 32.775 301.907 32.145C301.767 31.515 301.697 30.8033 301.697 30.01V14.995H299.037V13.77H301.697V7.295H303.552V13.77H306.982V14.995H303.552V29.765C303.552 30.8617 303.657 31.6317 303.867 32.075C304.077 32.5183 304.555 32.74 305.302 32.74C305.535 32.74 305.78 32.7283 306.037 32.705C306.317 32.6583 306.573 32.6117 306.807 32.565V34C306.527 34.07 306.212 34.1167 305.862 34.14C305.512 34.1867 305.197 34.21 304.917 34.21ZM314.251 34.315C312.664 34.315 311.404 33.8017 310.471 32.775C309.538 31.725 309.001 30.3133 308.861 28.54L310.436 28.085C310.553 29.7883 310.938 31.025 311.591 31.795C312.268 32.5417 313.178 32.915 314.321 32.915C315.348 32.915 316.141 32.635 316.701 32.075C317.261 31.4917 317.541 30.675 317.541 29.625C317.541 28.9017 317.296 28.155 316.806 27.385C316.339 26.5917 315.593 25.7633 314.566 24.9L312.221 22.905C311.218 22.0417 310.483 21.225 310.016 20.455C309.549 19.6617 309.316 18.7633 309.316 17.76C309.316 16.8267 309.503 16.045 309.876 15.415C310.273 14.785 310.809 14.3067 311.486 13.98C312.186 13.63 312.991 13.455 313.901 13.455C315.418 13.455 316.549 13.9333 317.296 14.89C318.043 15.8467 318.439 17.13 318.486 18.74L317.121 19.16C317.098 18.11 316.946 17.27 316.666 16.64C316.409 16.01 316.048 15.555 315.581 15.275C315.138 14.995 314.613 14.855 314.006 14.855C313.119 14.855 312.396 15.0883 311.836 15.555C311.299 15.9983 311.031 16.6633 311.031 17.55C311.031 18.2967 311.171 18.95 311.451 19.51C311.754 20.0467 312.303 20.6767 313.096 21.4L315.511 23.535C316.118 24.0483 316.701 24.5967 317.261 25.18C317.821 25.7633 318.276 26.4167 318.626 27.14C318.999 27.84 319.186 28.68 319.186 29.66C319.186 30.64 318.976 31.48 318.556 32.18C318.159 32.8567 317.588 33.3817 316.841 33.755C316.118 34.1283 315.254 34.315 314.251 34.315Z" fill="#DC486A"/>
</g>
<defs>
<filter id="filter0_d_540_269" x="0" y="0" width="544" height="652" filterUnits="userSpaceOnUse" color-interpolation-filters="sRGB">
<feFlood flood-opacity="0" result="BackgroundImageFix"/>
<feColorMatrix in="SourceAlpha" type="matrix" values="0 0 0 0 0 0 0 0 0 0 0 0 0 0 0 0 0 0 127 0" result="hardAlpha"/>
<feOffset dy="4"/>
<feGaussianBlur stdDeviation="2"/>
<feComposite in2="hardAlpha" operator="out"/>
<feColorMatrix type="matrix" values="0 0 0 0 0 0 0 0 0 0 0 0 0 0 0 0 0 0 0.25 0"/>
<feBlend mode="normal" in2="BackgroundImageFix" result="effect1_dropShadow_540_269"/>
<feBlend mode="normal" in="SourceGraphic" in2="effect1_dropShadow_540_269" result="shape"/>
</filter>
</defs>
</svg>
