<svg width="389" height="158" viewBox="0 0 389 158" fill="none" xmlns="http://www.w3.org/2000/svg">
<g clip-path="url(#clip0_775_527)">
<path d="M389 0H0V158H389V0Z" fill="#2E3440"/>
<mask id="mask0_775_527" style="mask-type:alpha" maskUnits="userSpaceOnUse" x="0" y="0" width="389" height="158">
<path d="M389 0H0V158H389V0Z" fill="#2E3440"/>
</mask>
<g mask="url(#mask0_775_527)">
<path d="M673.522 188.307L253.529 113.056C241.026 110.816 228.819 119.087 226.265 131.53L141.624 543.902C139.07 556.345 147.136 568.249 159.639 570.489L579.632 645.739C592.135 647.979 604.342 639.708 606.896 627.265L691.537 214.893C694.091 202.45 686.026 190.547 673.522 188.307Z" fill="#4FF7FF"/>
<path d="M665.106 207.586L-771.708 -46L-797 78.8663L639.814 332.453L665.106 207.586Z" fill="#FF4500"/>
</g>
<path d="M96.2932 29.9956C98.1286 27.2366 101.908 26.4023 104.734 28.1322L120.087 37.5288C122.913 39.2587 123.716 42.8976 121.881 45.6566L111.911 60.6433C110.076 63.4023 106.296 64.2365 103.47 62.5066L88.1175 53.11C85.2911 51.3801 84.4878 47.7412 86.3232 44.9822L96.2932 29.9956Z" fill="white"/>
</g>
<defs>
<clipPath id="clip0_775_527">
<rect width="389" height="158" fill="white"/>
</clipPath>
</defs>
</svg>
