<svg width="258" height="78" viewBox="0 0 258 78" fill="none" xmlns="http://www.w3.org/2000/svg">
<path d="M83.8056 27.7H89.6556C92.2156 27.7 94.1256 28.19 95.3856 29.17C96.6456 30.13 97.2756 31.79 97.2756 34.15C97.2756 35.69 97.0456 36.95 96.5856 37.93C96.1456 38.89 95.3756 39.59 94.2756 40.03L97.6656 52H93.2256L90.3156 40.87H88.2156V52H83.8056V27.7ZM89.6256 38.11C90.8856 38.11 91.7756 37.82 92.2956 37.24C92.8356 36.66 93.1056 35.71 93.1056 34.39C93.1056 33.11 92.8656 32.18 92.3856 31.6C91.9256 31.02 91.0856 30.73 89.8656 30.73H88.2156V38.11H89.6256ZM105.602 52.27C103.742 52.27 102.352 51.76 101.432 50.74C100.512 49.7 100.052 48.2 100.052 46.24V40.42C100.052 38.46 100.512 36.97 101.432 35.95C102.352 34.91 103.742 34.39 105.602 34.39C107.462 34.39 108.852 34.91 109.772 35.95C110.712 36.97 111.182 38.46 111.182 40.42V46.24C111.182 48.2 110.712 49.7 109.772 50.74C108.852 51.76 107.462 52.27 105.602 52.27ZM105.632 49.45C106.252 49.45 106.662 49.21 106.862 48.73C107.062 48.23 107.162 47.5 107.162 46.54V40.15C107.162 39.19 107.062 38.46 106.862 37.96C106.662 37.46 106.252 37.21 105.632 37.21C104.992 37.21 104.572 37.46 104.372 37.96C104.172 38.46 104.072 39.19 104.072 40.15V46.54C104.072 47.5 104.172 48.23 104.372 48.73C104.572 49.21 104.992 49.45 105.632 49.45ZM117.904 52.27C116.504 52.27 115.454 51.78 114.754 50.8C114.074 49.8 113.734 48.23 113.734 46.09V40.78C113.734 38.82 114.054 37.27 114.694 36.13C115.354 34.97 116.414 34.39 117.874 34.39C118.994 34.39 120.034 34.85 120.994 35.77V27.7H125.104V52H120.994V50.77C120.034 51.77 119.004 52.27 117.904 52.27ZM119.374 49.45C119.894 49.45 120.434 49.26 120.994 48.88V37.75C120.474 37.37 119.934 37.18 119.374 37.18C118.334 37.18 117.814 38.09 117.814 39.91V46.39C117.814 47.37 117.924 48.13 118.144 48.67C118.364 49.19 118.774 49.45 119.374 49.45ZM128.303 34.66H132.383V37.33C132.963 36.31 133.553 35.58 134.153 35.14C134.753 34.68 135.423 34.45 136.163 34.45C136.423 34.45 136.633 34.47 136.793 34.51V38.74C136.153 38.5 135.593 38.38 135.113 38.38C134.033 38.38 133.123 38.94 132.383 40.06V52H128.303V34.66ZM138.909 28.51H142.989V31.9H138.909V28.51ZM138.909 34.66H142.989V52H138.909V34.66ZM151.331 57.7C149.491 57.7 148.031 57.41 146.951 56.83C145.871 56.27 145.331 55.42 145.331 54.28C145.331 53.52 145.571 52.85 146.051 52.27C146.531 51.71 147.161 51.25 147.941 50.89C147.281 50.69 146.771 50.4 146.411 50.02C146.071 49.62 145.901 49.14 145.901 48.58C145.901 47.94 146.051 47.38 146.351 46.9C146.671 46.42 147.161 45.89 147.821 45.31C147.201 44.81 146.731 44.18 146.411 43.42C146.111 42.64 145.961 41.66 145.961 40.48C145.961 38.5 146.431 36.99 147.371 35.95C148.331 34.91 149.721 34.39 151.541 34.39C153.301 34.39 154.581 34.93 155.381 36.01C155.561 35.73 155.851 35.42 156.251 35.08C156.651 34.74 157.101 34.45 157.601 34.21L158.171 33.97L159.131 36.16C158.771 36.26 158.281 36.44 157.661 36.7C157.041 36.94 156.591 37.15 156.311 37.33C156.491 37.73 156.641 38.23 156.761 38.83C156.881 39.43 156.941 40 156.941 40.54C156.941 42.44 156.501 43.92 155.621 44.98C154.741 46.02 153.381 46.54 151.541 46.54C150.741 46.54 149.961 46.42 149.201 46.18C148.861 46.68 148.691 47.08 148.691 47.38C148.691 47.62 148.811 47.81 149.051 47.95C149.291 48.07 149.691 48.16 150.251 48.22L153.881 48.58C156.681 48.88 158.081 50.34 158.081 52.96C158.081 54.54 157.531 55.72 156.431 56.5C155.351 57.3 153.651 57.7 151.331 57.7ZM151.541 43.96C152.221 43.96 152.671 43.7 152.891 43.18C153.111 42.66 153.221 41.76 153.221 40.48C153.221 39.22 153.111 38.32 152.891 37.78C152.671 37.24 152.221 36.97 151.541 36.97C150.861 36.97 150.401 37.24 150.161 37.78C149.921 38.3 149.801 39.2 149.801 40.48C149.801 41.68 149.921 42.56 150.161 43.12C150.401 43.68 150.861 43.96 151.541 43.96ZM151.781 54.64C152.921 54.64 153.761 54.52 154.301 54.28C154.861 54.06 155.141 53.67 155.141 53.11C155.141 52.63 154.961 52.27 154.601 52.03C154.261 51.81 153.611 51.65 152.651 51.55L149.681 51.28C149.301 51.6 149.011 51.9 148.811 52.18C148.611 52.48 148.511 52.81 148.511 53.17C148.511 53.67 148.761 54.04 149.261 54.28C149.761 54.52 150.601 54.64 151.781 54.64ZM165.485 52.27C163.625 52.27 162.235 51.76 161.315 50.74C160.395 49.7 159.935 48.2 159.935 46.24V40.42C159.935 38.46 160.395 36.97 161.315 35.95C162.235 34.91 163.625 34.39 165.485 34.39C167.345 34.39 168.735 34.91 169.655 35.95C170.595 36.97 171.065 38.46 171.065 40.42V46.24C171.065 48.2 170.595 49.7 169.655 50.74C168.735 51.76 167.345 52.27 165.485 52.27ZM165.515 49.45C166.135 49.45 166.545 49.21 166.745 48.73C166.945 48.23 167.045 47.5 167.045 46.54V40.15C167.045 39.19 166.945 38.46 166.745 37.96C166.545 37.46 166.135 37.21 165.515 37.21C164.875 37.21 164.455 37.46 164.255 37.96C164.055 38.46 163.955 39.19 163.955 40.15V46.54C163.955 47.5 164.055 48.23 164.255 48.73C164.455 49.21 164.875 49.45 165.515 49.45ZM187.572 52.33C185.372 52.33 183.722 51.71 182.622 50.47C181.542 49.23 180.952 47.38 180.852 44.92L184.662 44.17C184.722 45.71 184.962 46.89 185.382 47.71C185.822 48.51 186.502 48.91 187.422 48.91C188.102 48.91 188.602 48.71 188.922 48.31C189.262 47.89 189.432 47.33 189.432 46.63C189.432 45.67 189.212 44.86 188.772 44.2C188.352 43.52 187.682 42.78 186.762 41.98L183.702 39.31C182.762 38.51 182.052 37.65 181.572 36.73C181.112 35.81 180.882 34.71 180.882 33.43C180.882 31.53 181.432 30.06 182.532 29.02C183.652 27.96 185.192 27.43 187.152 27.43C189.252 27.43 190.752 28.03 191.652 29.23C192.572 30.41 193.102 32.01 193.242 34.03L189.432 34.69C189.372 33.37 189.182 32.38 188.862 31.72C188.562 31.04 187.962 30.7 187.062 30.7C186.422 30.7 185.922 30.92 185.562 31.36C185.202 31.78 185.022 32.32 185.022 32.98C185.022 33.76 185.172 34.42 185.472 34.96C185.792 35.48 186.302 36.04 187.002 36.64L190.032 39.31C191.172 40.29 192.062 41.34 192.702 42.46C193.342 43.58 193.662 44.88 193.662 46.36C193.662 47.52 193.402 48.55 192.882 49.45C192.382 50.35 191.672 51.06 190.752 51.58C189.832 52.08 188.772 52.33 187.572 52.33ZM201.256 52.27C199.336 52.27 197.926 51.74 197.026 50.68C196.126 49.6 195.676 48.01 195.676 45.91V40.75C195.676 38.63 196.126 37.04 197.026 35.98C197.946 34.92 199.356 34.39 201.256 34.39C203.216 34.39 204.596 34.94 205.396 36.04C206.216 37.14 206.626 38.8 206.626 41.02V43.51H199.726V46.93C199.726 47.77 199.846 48.38 200.086 48.76C200.346 49.14 200.746 49.33 201.286 49.33C201.806 49.33 202.176 49.15 202.396 48.79C202.636 48.41 202.756 47.84 202.756 47.08V45.61H206.596V46.81C206.596 48.59 206.146 49.95 205.246 50.89C204.346 51.81 203.016 52.27 201.256 52.27ZM202.756 41.5V39.85C202.756 38.95 202.646 38.31 202.426 37.93C202.206 37.53 201.816 37.33 201.256 37.33C200.676 37.33 200.276 37.54 200.056 37.96C199.836 38.38 199.726 39.16 199.726 40.3V41.5H202.756ZM214.495 57.7C212.655 57.7 211.195 57.41 210.115 56.83C209.035 56.27 208.495 55.42 208.495 54.28C208.495 53.52 208.735 52.85 209.215 52.27C209.695 51.71 210.325 51.25 211.105 50.89C210.445 50.69 209.935 50.4 209.575 50.02C209.235 49.62 209.065 49.14 209.065 48.58C209.065 47.94 209.215 47.38 209.515 46.9C209.835 46.42 210.325 45.89 210.985 45.31C210.365 44.81 209.895 44.18 209.575 43.42C209.275 42.64 209.125 41.66 209.125 40.48C209.125 38.5 209.595 36.99 210.535 35.95C211.495 34.91 212.885 34.39 214.705 34.39C216.465 34.39 217.745 34.93 218.545 36.01C218.725 35.73 219.015 35.42 219.415 35.08C219.815 34.74 220.265 34.45 220.765 34.21L221.335 33.97L222.295 36.16C221.935 36.26 221.445 36.44 220.825 36.7C220.205 36.94 219.755 37.15 219.475 37.33C219.655 37.73 219.805 38.23 219.925 38.83C220.045 39.43 220.105 40 220.105 40.54C220.105 42.44 219.665 43.92 218.785 44.98C217.905 46.02 216.545 46.54 214.705 46.54C213.905 46.54 213.125 46.42 212.365 46.18C212.025 46.68 211.855 47.08 211.855 47.38C211.855 47.62 211.975 47.81 212.215 47.95C212.455 48.07 212.855 48.16 213.415 48.22L217.045 48.58C219.845 48.88 221.245 50.34 221.245 52.96C221.245 54.54 220.695 55.72 219.595 56.5C218.515 57.3 216.815 57.7 214.495 57.7ZM214.705 43.96C215.385 43.96 215.835 43.7 216.055 43.18C216.275 42.66 216.385 41.76 216.385 40.48C216.385 39.22 216.275 38.32 216.055 37.78C215.835 37.24 215.385 36.97 214.705 36.97C214.025 36.97 213.565 37.24 213.325 37.78C213.085 38.3 212.965 39.2 212.965 40.48C212.965 41.68 213.085 42.56 213.325 43.12C213.565 43.68 214.025 43.96 214.705 43.96ZM214.945 54.64C216.085 54.64 216.925 54.52 217.465 54.28C218.025 54.06 218.305 53.67 218.305 53.11C218.305 52.63 218.125 52.27 217.765 52.03C217.425 51.81 216.775 51.65 215.815 51.55L212.845 51.28C212.465 51.6 212.175 51.9 211.975 52.18C211.775 52.48 211.675 52.81 211.675 53.17C211.675 53.67 211.925 54.04 212.425 54.28C212.925 54.52 213.765 54.64 214.945 54.64ZM226.247 52.27C225.267 52.27 224.537 51.91 224.057 51.19C223.577 50.47 223.337 49.56 223.337 48.46V34.66H227.387V47.71C227.387 48.25 227.477 48.66 227.657 48.94C227.837 49.22 228.147 49.36 228.587 49.36C229.047 49.36 229.657 49.09 230.417 48.55V34.66H234.497V52H230.417V50.35C229.077 51.63 227.687 52.27 226.247 52.27ZM242.887 52.27C240.967 52.27 239.557 51.74 238.657 50.68C237.757 49.6 237.307 48.01 237.307 45.91V40.75C237.307 38.63 237.757 37.04 238.657 35.98C239.577 34.92 240.987 34.39 242.887 34.39C244.847 34.39 246.227 34.94 247.027 36.04C247.847 37.14 248.257 38.8 248.257 41.02V43.51H241.357V46.93C241.357 47.77 241.477 48.38 241.717 48.76C241.977 49.14 242.377 49.33 242.917 49.33C243.437 49.33 243.807 49.15 244.027 48.79C244.267 48.41 244.387 47.84 244.387 47.08V45.61H248.227V46.81C248.227 48.59 247.777 49.95 246.877 50.89C245.977 51.81 244.647 52.27 242.887 52.27ZM244.387 41.5V39.85C244.387 38.95 244.277 38.31 244.057 37.93C243.837 37.53 243.447 37.33 242.887 37.33C242.307 37.33 241.907 37.54 241.687 37.96C241.467 38.38 241.357 39.16 241.357 40.3V41.5H244.387ZM251.296 27.7H255.346V52H251.296V27.7Z" fill="#DBDCE4"/>
<path d="M15.5744 48.9864C15.5744 53.3906 16.2099 56.5612 11.7372 56.5612C6.77148 57.0126 0 51.0922 0 44.5464C0 40.1423 2.76331 36.6934 7.47599 38.0501C12.1887 39.4068 15.5744 44.5823 15.5744 48.9864Z" fill="#B9906A"/>
<path d="M11.8222 54.8372H11.7995L11.7769 54.8393C9.95162 55.0052 7.69643 53.9906 5.87012 52.2209C4.05373 50.4608 2.7572 48.0432 2.7572 45.5461C2.7572 43.8456 3.29148 42.3909 4.21158 41.4973C5.10971 40.6249 6.44042 40.2228 8.21126 40.7325C10.0011 41.2478 11.5636 42.4974 12.6824 44.0671C13.8023 45.6383 14.4492 47.4905 14.4492 49.1644C14.4492 49.6016 14.4562 50.0024 14.4629 50.3824C14.4706 50.8202 14.4778 51.2304 14.4732 51.6374C14.4649 52.3753 14.4156 52.9766 14.2733 53.4539C14.1355 53.9166 13.918 54.2383 13.5781 54.4569C13.2251 54.6838 12.6815 54.8372 11.8222 54.8372Z" fill="#A27C59" stroke="#A17C59"/>
<path d="M58.9113 49.0614C58.9113 53.4949 58.2759 56.6867 62.7486 56.6867C67.7145 57.1411 74.4862 51.1812 74.4862 44.5918C74.4862 40.1583 71.7228 36.6864 67.01 38.0521C62.2972 39.4178 58.9113 44.6279 58.9113 49.0614Z" fill="#B9906A"/>
<path d="M38.5522 42.3149C38.5522 52.2736 41.958 61.9882 38.5522 64.8459C34.2826 68.2376 47.06 76.5343 37.6946 77.9284C30.0726 78.9847 18.7942 67.9953 16.6601 65.8149C14.526 63.6345 8.80299 50.391 9.02871 39.8922C9.02871 20.7586 21.7384 5.2478 37.4167 5.2478C53.0949 5.2478 38.5522 23.1813 38.5522 42.3149Z" fill="#B9906A"/>
<path d="M62.7413 54.8497H62.7633L62.7853 54.8516C64.6166 55.0133 66.8738 54.0248 68.6984 52.3073C70.5145 50.5978 71.8059 48.2542 71.8059 45.8388C71.8059 44.1938 71.2742 42.7867 70.3568 41.9211C69.4591 41.0741 68.1245 40.6811 66.3484 41.1778C64.5559 41.6791 62.9941 42.8937 61.8771 44.416C60.7586 45.9404 60.1144 47.7348 60.1144 49.3535C60.1144 49.7797 60.1074 50.169 60.1007 50.538C60.093 50.9624 60.0858 51.3599 60.0904 51.7554C60.0987 52.4716 60.148 53.0524 60.2891 53.5123C60.4253 53.9565 60.6402 54.2668 60.98 54.479C61.3342 54.7002 61.88 54.8497 62.7413 54.8497Z" fill="#A27C59" stroke="#A17C59"/>
<path d="M37.5211 54.9053C37.5211 64.864 32.9798 61.9882 36.3856 64.8459C40.6552 68.2376 27.4851 76.5741 37.2431 77.9284C44.8652 78.9862 56.1436 67.9954 58.2777 65.8149C60.4118 63.6345 65.9091 51.5196 65.9091 39.8922C65.9091 20.7586 53.1994 5.2478 37.5211 5.2478C21.8429 5.2478 37.5211 35.7718 37.5211 54.9053Z" fill="#B9906A"/>
<path d="M16.5399 30.7365C14.0132 30.8184 12.0768 32.3868 11.4244 33.1608C22.2531 31.3789 28.6064 33.7326 29.9526 33.4631C31.0297 33.2475 30.4083 31.2653 30.3014 30.2901L16.5399 30.7365Z" fill="#231713"/>
<path d="M57.7585 30.2449C60.2849 30.163 62.3187 31.6026 63.0198 32.3326C52.0996 31.2562 45.9128 34.0167 44.5521 33.835C43.4635 33.6896 43.955 31.6713 43.9985 30.6913L57.7585 30.2449Z" fill="#231713"/>
<path d="M19.4115 57.84C14.1287 54.6784 11.7372 55.3571 11.7372 55.3571C11.7372 55.3571 11.7372 56.4167 13.0915 59.7745C14.4457 63.1322 16.2514 65.3707 16.2514 65.3707C16.2514 65.3707 17.6057 67.2132 22.5714 71.1908C27.5371 75.1685 28.4399 75.2202 28.4399 75.2202C28.4399 75.2202 28.166 63.0793 19.4115 57.84Z" fill="#A78261"/>
<path d="M55.526 57.8932C60.8089 54.7413 63.2004 55.418 63.2004 55.418C63.2004 55.418 63.2004 56.4743 61.8461 59.8217C60.4918 63.1692 58.6861 65.4008 58.6861 65.4008C58.6861 65.4008 57.3318 67.2376 52.366 71.203C47.4003 75.1685 46.4974 75.22 46.4974 75.22C46.4974 75.22 46.7713 63.1164 55.526 57.8932Z" fill="#A78261"/>
<path d="M33.0945 45.9526C34.2353 42.1528 39.6159 42.1527 40.7567 45.9526L43.0356 53.5436C43.584 55.3702 42.7687 57.3479 40.9797 58.0089C39.6815 58.4886 38.1763 58.9148 36.9256 58.9148C35.675 58.9148 34.1697 58.4886 32.8715 58.0089C31.0826 57.3479 30.2672 55.3702 30.8156 53.5436L33.0945 45.9526Z" fill="#B97D6A"/>
<path d="M34.0377 49.2603C34.8585 46.344 38.9925 46.344 39.8133 49.2603L40.7859 52.7158C41.1897 54.1506 40.481 55.6861 39.0435 56.0803C38.3332 56.2751 37.5746 56.4255 36.9255 56.4255C36.2765 56.4255 35.5178 56.2751 34.8076 56.0803C33.37 55.6861 32.6613 54.1506 33.0652 52.7158L34.0377 49.2603Z" fill="#C98E7B"/>
<path d="M7.68013 35.9453L35.2117 36.6225C35.2117 36.6225 35.2117 49.2146 32.2619 52.6301C29.312 56.0456 12.8423 56.1045 10.1383 53.6312C7.43431 51.1579 7.68013 35.9453 7.68013 35.9453Z" fill="#2E2E2E"/>
<path d="M66.3547 35.9453L38.8231 36.6225C38.8231 36.6225 38.8231 49.2146 41.7729 52.6301C44.7227 56.0456 61.1925 56.1045 63.8965 53.6312C66.6005 51.1579 66.3547 35.9453 66.3547 35.9453Z" fill="#2E2E2E"/>
<path d="M65.0009 38.6538H40.2431C40.2431 38.6538 40.1774 49.1458 42.837 51.8465C45.4967 54.5471 60.3464 54.5936 62.7845 52.638C65.2225 50.6824 65.0009 38.6538 65.0009 38.6538Z" fill="#B9906A"/>
<path d="M9.03393 38.6538H21.4118H33.7896C33.7896 38.6538 33.8553 49.1458 31.1959 51.8465C28.5364 54.5471 13.6879 54.5936 11.2501 52.638C8.81231 50.6824 9.03393 38.6538 9.03393 38.6538Z" fill="#B9906A"/>
<path d="M7.22288 35.9455C7.4469 35.494 37.0174 36.6226 37.0174 36.6226L66.8119 35.9455L66.5878 37.7512L66.1398 38.654H7.89494L7.4469 37.7512C7.4469 37.7512 6.99886 36.3969 7.22288 35.9455Z" fill="#2E2E2E"/>
<path d="M33.406 38.2026H40.6289L40.113 45.877C40.113 45.877 38.401 42.0398 37.0174 42.0398C35.6338 42.0398 33.9219 45.877 33.9219 45.877L33.406 38.2026Z" fill="#2E2E2E"/>
<path d="M42.8861 38.6538C41.0804 38.8344 40.4784 41.4376 40.4032 42.7167H40.1775V38.6538H42.8861Z" fill="#2E2E2E"/>
<path d="M11.2858 38.6538C9.78107 38.8143 9.09139 41.1283 9.02869 42.2653V38.6538H11.2858Z" fill="#2E2E2E"/>
<path d="M31.1488 38.6538C32.9546 38.8344 33.5565 41.4376 33.6317 42.7167H33.8574V38.6538H31.1488Z" fill="#2E2E2E"/>
<path d="M9.48003 33.688C11.2789 23.6219 17.3801 13.5993 27.3116 12.0193C28.4908 11.3227 29.9371 6.18823 25.3383 5.7703C20.7395 5.35237 16.2734 6.81511 12.5148 9.16598C8.75622 11.5168 9.48003 33.688 9.48003 33.688Z" fill="#211411"/>
<path d="M37.7899 32.5077C40.3145 27.5167 40.7054 22.8307 39.5551 20.5967C41.7746 22.4295 43.9068 27.631 41.1603 31.8499C37.3469 37.7079 38.2487 41.2699 38.2894 41.8789C37.618 41.925 35.2653 37.4988 37.7899 32.5077Z" fill="#19110E"/>
<path d="M54.53 37.201C55.193 32.9338 53.9739 29.6116 52.1489 28.4897C54.8332 28.9692 58.5741 31.77 57.4438 35.5887C55.8744 40.891 57.9167 43.002 58.1602 43.4021C57.5512 43.6655 53.8669 41.4682 54.53 37.201Z" fill="#1F1410"/>
<path d="M55.7518 36.8481C55.5713 29.4447 49.6575 26.6157 48.0775 25.5623C46.347 25.1862 42.4797 23.3503 40.8546 19.0166C38.8231 13.5994 23.023 12.0194 23.4745 10.2137C23.8356 8.76907 24.2268 7.35458 24.3773 6.82791C29.5688 -3.55503 56.429 0.282145 61.3947 2.99074C66.3605 5.69933 70.6491 10.6651 70.4234 27.5938C70.2428 41.1368 73.0567 43.9958 75.3891 44.9739C74.9377 45.6511 71.3262 48.134 66.1348 46.7797C59.8805 45.1481 56.5794 40.6853 55.7518 36.8481Z" fill="url(#paint0_linear_627_478)"/>
<path d="M31.1869 64.5329C31.7983 64.1043 32.5638 63.9972 33.3046 64.0908C34.3848 64.2273 36.0208 64.4012 37.2432 64.3855C38.2817 64.3722 39.6599 64.2139 40.6021 64.0885C41.3028 63.9952 42.0252 64.0845 42.6277 64.4541C43.7144 65.1206 44.9503 66.1912 41.6759 66.1912C37.7858 66.1912 36.4892 66.1912 32.167 66.1912C29.305 66.1912 30.2331 65.2016 31.1869 64.5329Z" fill="#8A5949"/>
<path d="M27.0859 43.1682C27.0859 44.7888 26.2775 46.1025 25.2802 46.1025C24.2829 46.1025 23.4745 44.7888 23.4745 43.1682C23.4745 41.5476 24.2829 40.6289 25.2802 40.6289C26.2775 40.6289 27.0859 41.5476 27.0859 43.1682Z" fill="#3D2B27"/>
<path d="M51.9147 43.1682C51.9147 44.7888 51.1062 46.1025 50.1089 46.1025C49.1117 46.1025 48.3032 44.7888 48.3032 43.1682C48.3032 41.5476 49.1117 40.6289 50.1089 40.6289C51.1062 40.6289 51.9147 41.5476 51.9147 43.1682Z" fill="#3D2B27"/>
<ellipse cx="48.529" cy="41.5318" rx="1.12858" ry="0.902872" fill="white"/>
<ellipse cx="23.7002" cy="41.5318" rx="1.12858" ry="0.902872" fill="white"/>
<path d="M39.3842 34.3042C42.6606 16.1018 32.9545 13.8249 32.9545 13.8249C40.1774 0.955302 65.5672 11.3505 53.1528 29.7899C40.7384 48.2292 53.6043 47.6214 50.4442 48.0729C47.2842 48.5243 37.3527 45.59 39.3842 34.3042Z" fill="url(#paint1_linear_627_478)"/>
<defs>
<linearGradient id="paint0_linear_627_478" x1="45.1432" y1="25.5623" x2="99.315" y2="-6.26359" gradientUnits="userSpaceOnUse">
<stop stop-color="#211411"/>
<stop offset="1" stop-color="#3D2B27"/>
</linearGradient>
<linearGradient id="paint1_linear_627_478" x1="25.5059" y1="38.8794" x2="60.7176" y2="17.4363" gradientUnits="userSpaceOnUse">
<stop stop-color="#0F0A08"/>
<stop offset="1" stop-color="#30201B"/>
</linearGradient>
</defs>
</svg>
