<svg width="250" height="250" viewBox="0 0 250 250" fill="none" xmlns="http://www.w3.org/2000/svg">
<circle cx="125" cy="125" r="125" fill="url(#paint0_linear_511_232)"/>
<mask id="mask0_511_232" style="mask-type:alpha" maskUnits="userSpaceOnUse" x="0" y="0" width="250" height="250">
<circle cx="125" cy="125" r="125" fill="#C4C4C4"/>
</mask>
<g mask="url(#mask0_511_232)">
<path d="M32.0012 223.003C32.0012 223.003 99.7512 208.753 126.501 209.003C153.251 209.253 223.001 223.003 223.001 223.003L198.474 310.753H71.9447L32.0012 223.003Z" fill="#3A3A3A"/>
<path d="M160 218.367C160 224.644 144.33 238 125 238C105.67 238 90.0004 224.644 90.0004 218.367C90.0004 212.089 105.67 207 125 207C144.33 207 160 212.089 160 218.367Z" fill="#2D2D2D"/>
<path d="M155.002 214.75C155.002 219.306 141.458 229 124.751 229C108.045 229 94.5015 219.306 94.5015 214.75C94.5015 210.194 108.045 206.5 124.751 206.5C141.458 206.5 155.002 210.194 155.002 214.75Z" fill="#B9906A"/>
<path d="M97.3031 172.5H151.951C151.951 172.5 152.699 188.456 153.725 198.853C154.752 209.25 155.002 214.75 155.002 214.75C155.002 214.75 137.264 221.587 125.251 221.5C113.082 221.412 94.5015 214.75 94.5015 214.75C94.5015 214.75 94.7515 209.25 95.5288 198.853C96.3062 188.456 97.3031 172.5 97.3031 172.5Z" fill="#B9906A"/>
</g>
<path d="M94.999 206.25L96.6 182.5L150.6 185.75C150.6 185.75 140.684 207.612 132.249 212.25C119.934 219.021 94.999 206.25 94.999 206.25Z" fill="url(#paint1_linear_511_232)"/>
<path d="M75.9424 136.835C75.9424 146.575 77.3478 153.587 67.4564 153.587C56.4744 154.586 41.499 141.493 41.499 127.016C41.499 117.276 47.6102 109.649 58.0325 112.649C68.4547 115.65 75.9424 127.096 75.9424 136.835Z" fill="#B9906A"/>
<path d="M67.6433 150.38H67.6206L67.5981 150.382C63.3214 150.771 58.1691 148.406 54.0585 144.423C49.9579 140.45 46.99 134.955 46.99 129.227C46.99 125.352 48.2063 121.959 50.3901 119.838C52.5519 117.738 55.7279 116.82 59.8252 117.999C63.9415 119.184 67.5029 122.046 70.039 125.604C72.5762 129.164 74.0588 133.381 74.0588 137.229C74.0588 138.166 74.0742 139.051 74.0888 139.896C74.1058 140.879 74.1219 141.809 74.1119 142.705C74.0934 144.347 73.9845 145.748 73.6447 146.888C73.3092 148.014 72.7562 148.863 71.8541 149.443C70.939 150.031 69.6066 150.38 67.6433 150.38Z" fill="#A27C59" stroke="#A17C59"/>
<path d="M171.781 137.001C171.781 146.806 170.376 153.865 180.268 153.865C191.25 154.87 206.226 141.689 206.226 127.117C206.226 117.312 200.114 109.633 189.692 112.654C179.269 115.674 171.781 127.196 171.781 137.001Z" fill="#B9906A"/>
<path d="M126.761 122.081C126.761 144.105 134.293 165.589 126.761 171.909C117.319 179.41 145.577 197.759 124.865 200.842C108.008 203.178 83.0656 178.874 78.346 174.052C73.6264 169.23 60.9698 139.942 61.4689 116.723C61.4689 74.4087 89.577 40.1059 124.25 40.1059C158.923 40.1059 126.761 79.7665 126.761 122.081Z" fill="#B9906A"/>
<path d="M180.253 150.408H180.275L180.297 150.41C184.58 150.788 189.734 148.488 193.843 144.621C197.943 140.761 200.906 135.429 200.906 129.874C200.906 126.118 199.692 122.828 197.511 120.77C195.35 118.73 192.17 117.836 188.067 118.983C183.949 120.135 180.388 122.916 177.854 126.37C175.318 129.825 173.838 133.917 173.838 137.647C173.838 138.559 173.823 139.419 173.808 140.239C173.791 141.194 173.775 142.096 173.785 142.966C173.804 144.561 173.912 145.918 174.251 147.022C174.585 148.111 175.135 148.933 176.037 149.496C176.953 150.069 178.288 150.408 180.253 150.408Z" fill="#A27C59" stroke="#A17C59"/>
<path d="M124.479 149.925C124.479 171.95 114.435 165.59 121.967 171.909C131.41 179.41 102.284 197.847 123.864 200.842C140.72 203.181 165.663 178.875 170.383 174.052C175.102 169.23 187.26 142.438 187.26 116.723C187.26 74.4087 159.152 40.1059 124.479 40.1059C89.8057 40.1059 124.479 107.611 124.479 149.925Z" fill="#B9906A"/>
<path d="M78.0774 96.4753C72.4895 96.6565 68.2069 100.125 66.7641 101.837C90.7123 97.896 104.763 103.101 107.74 102.505C110.122 102.028 108.748 97.6447 108.511 95.4881L78.0774 96.4753Z" fill="#231713"/>
<path d="M169.234 95.3877C174.822 95.2065 179.32 98.3902 180.87 100.005C156.719 97.6242 143.037 103.729 140.028 103.327C137.62 103.006 138.707 98.5422 138.804 96.3748L169.234 95.3877Z" fill="#231713"/>
<path d="M84.4283 156.415C72.745 149.423 67.4562 150.924 67.4562 150.924C67.4562 150.924 67.4562 153.267 70.4512 160.693C73.4463 168.119 77.4396 173.069 77.4396 173.069C77.4396 173.069 80.4347 177.144 91.4165 185.941C102.398 194.737 104.395 194.851 104.395 194.851C104.395 194.851 103.789 168.002 84.4283 156.415Z" fill="#A78261"/>
<path d="M164.298 156.533C175.982 149.562 181.271 151.059 181.271 151.059C181.271 151.059 181.271 153.395 178.276 160.798C175.28 168.201 171.287 173.136 171.287 173.136C171.287 173.136 168.292 177.198 157.31 185.968C146.328 194.738 144.331 194.852 144.331 194.852C144.331 194.852 144.937 168.084 164.298 156.533Z" fill="#A78261"/>
<path d="M119.572 121.179C120.799 117.557 125.923 117.557 127.149 121.179L137.192 150.835C137.844 152.761 136.947 154.864 135.052 155.6C131.906 156.823 127.098 158.412 123.361 158.412C119.624 158.412 114.816 156.823 111.67 155.6C109.775 154.864 108.878 152.761 109.53 150.835L119.572 121.179Z" fill="#B97D6A"/>
<path d="M120.482 126.899C121.32 124.014 125.406 124.014 126.244 126.899L132.608 148.809C133.03 150.262 132.302 151.8 130.873 152.298C128.774 153.029 125.734 153.919 123.363 153.919C120.992 153.919 117.952 153.029 115.853 152.298C114.424 151.8 113.696 150.262 114.118 148.809L120.482 126.899Z" fill="#C98E7B"/>
<path d="M58.4805 107.994L119.368 109.492C119.368 109.492 119.368 137.34 112.844 144.893C106.32 152.447 69.8969 152.577 63.9169 147.107C57.9369 141.638 58.4805 107.994 58.4805 107.994Z" fill="#2E2E2E"/>
<path d="M188.245 107.994L127.358 109.492C127.358 109.492 127.358 137.34 133.881 144.893C140.405 152.447 176.828 152.577 182.808 147.107C188.788 141.638 188.245 107.994 188.245 107.994Z" fill="#2E2E2E"/>
<path d="M185.248 113.984H130.495C130.495 113.984 130.35 137.188 136.232 143.16C142.114 149.133 174.955 149.236 180.346 144.911C185.738 140.586 185.248 113.984 185.248 113.984Z" fill="#B9906A"/>
<path d="M61.4764 113.984H88.8505H116.225C116.225 113.984 116.37 137.188 110.488 143.16C104.607 149.133 71.769 149.236 66.3776 144.911C60.9863 140.586 61.4764 113.984 61.4764 113.984Z" fill="#B9906A"/>
<path d="M57.4726 107.994C57.968 106.996 123.364 109.492 123.364 109.492L189.256 107.994L188.761 111.988L187.77 113.984H58.9589L57.968 111.988C57.968 111.988 56.9772 108.993 57.4726 107.994Z" fill="#2E2E2E"/>
<path d="M115.377 112.986H131.35L130.209 129.958C130.209 129.958 126.423 121.472 123.364 121.472C120.304 121.472 116.518 129.958 116.518 129.958L115.377 112.986Z" fill="#2E2E2E"/>
<path d="M136.341 113.984C132.348 114.384 131.017 120.141 130.85 122.97H130.351V113.984H136.341Z" fill="#2E2E2E"/>
<path d="M66.4566 113.984C63.1288 114.339 61.6035 119.457 61.4648 121.971V113.984H66.4566Z" fill="#2E2E2E"/>
<path d="M110.383 113.984C114.377 114.384 115.708 120.141 115.874 122.97H116.374V113.984H110.383Z" fill="#2E2E2E"/>
<path d="M62.4635 103.003C66.4418 80.741 79.9348 58.5757 101.899 55.0815C104.506 53.541 107.705 42.1859 97.5346 41.2616C87.3643 40.3374 77.4873 43.5723 69.175 48.7713C60.8627 53.9703 62.4635 103.003 62.4635 103.003Z" fill="#211411"/>
<path d="M125.071 100.392C130.654 89.354 131.519 78.9909 128.975 74.0502C133.884 78.1035 138.599 89.6069 132.525 98.9372C124.091 111.892 126.086 119.77 126.176 121.117C124.691 121.219 119.488 111.43 125.071 100.392Z" fill="#19110E"/>
<path d="M162.092 110.772C163.558 101.335 160.862 93.9877 156.826 91.5067C162.763 92.5669 171.036 98.761 168.536 107.206C165.065 118.933 169.582 123.601 170.121 124.486C168.774 125.068 160.626 120.209 162.092 110.772Z" fill="#1F1410"/>
<path d="M164.797 109.991C164.398 93.618 151.319 87.3616 147.825 85.0321C143.998 84.2002 135.445 80.1402 131.851 70.5559C127.359 58.5756 92.4161 55.0814 93.4144 51.0879C94.2131 47.8932 95.0783 44.765 95.4111 43.6002C106.892 20.638 166.295 29.124 177.277 35.1142C188.258 41.1043 197.743 52.0863 197.244 89.5248C196.844 119.476 203.067 125.798 208.226 127.962C207.227 129.459 199.24 134.95 187.759 131.955C173.928 128.347 166.627 118.477 164.797 109.991Z" fill="url(#paint2_linear_511_232)"/>
<path d="M111.64 170.459C112.28 170.074 113.035 169.955 113.774 170.057C115.901 170.351 120.563 170.933 123.863 170.891C126.708 170.855 130.705 170.326 132.596 170.053C133.295 169.952 134.007 170.051 134.629 170.387C136.964 171.647 142.133 174.884 133.666 174.884C125.063 174.884 122.196 174.884 112.637 174.884C105.083 174.884 109.469 171.767 111.64 170.459Z" fill="#8A5949"/>
<path d="M101.4 123.968C101.4 127.552 99.6123 130.457 97.4068 130.457C95.2013 130.457 93.4133 127.552 93.4133 123.968C93.4133 120.384 95.2013 118.352 97.4068 118.352C99.6123 118.352 101.4 120.384 101.4 123.968Z" fill="#3D2B27"/>
<path d="M156.312 123.968C156.312 127.552 154.524 130.457 152.318 130.457C150.113 130.457 148.325 127.552 148.325 123.968C148.325 120.384 150.113 118.352 152.318 118.352C154.524 118.352 156.312 120.384 156.312 123.968Z" fill="#3D2B27"/>
<ellipse cx="148.82" cy="120.349" rx="2.4959" ry="1.99672" fill="white"/>
<ellipse cx="93.9117" cy="120.349" rx="2.4959" ry="1.99672" fill="white"/>
<path d="M128.6 104.366C135.846 64.1103 114.381 59.0749 114.381 59.0749C130.354 30.6133 186.505 53.6027 159.05 94.382C131.595 135.161 160.048 133.817 153.06 134.816C146.071 135.814 124.107 129.325 128.6 104.366Z" fill="url(#paint3_linear_511_232)"/>
<defs>
<linearGradient id="paint0_linear_511_232" x1="125" y1="0" x2="125" y2="250" gradientUnits="userSpaceOnUse">
<stop stop-color="#002EA4"/>
<stop offset="1" stop-color="#7E334E"/>
</linearGradient>
<linearGradient id="paint1_linear_511_232" x1="117.015" y1="222.045" x2="111.999" y2="193.75" gradientUnits="userSpaceOnUse">
<stop stop-color="#A78261"/>
<stop offset="0.864506" stop-color="#664E39"/>
</linearGradient>
<linearGradient id="paint2_linear_511_232" x1="141.336" y1="85.0321" x2="261.139" y2="14.6479" gradientUnits="userSpaceOnUse">
<stop stop-color="#211411"/>
<stop offset="1" stop-color="#3D2B27"/>
</linearGradient>
<linearGradient id="paint3_linear_511_232" x1="97.9077" y1="114.484" x2="175.78" y2="67.0617" gradientUnits="userSpaceOnUse">
<stop stop-color="#0F0A08"/>
<stop offset="1" stop-color="#30201B"/>
</linearGradient>
</defs>
</svg>
